<svg xmlns="http://www.w3.org/2000/svg" viewBox="0 0 501.33 463.74"><defs><style>.cls-1{fill:#006eb6;}.cls-2{fill:#fff;}</style></defs><title>Asset 1</title><g id="Layer_2" data-name="Layer 2"><g id="Layer_1-2" data-name="Layer 1"><path class="cls-1" d="M363.24,129.52l-26.65-5.12a92.15,92.15,0,0,0-8.4-37.52L349.94,71a8.71,8.71,0,0,0,1.71-12.44L334.57,36.89a8.72,8.72,0,0,0-12.5-1.25L301.66,53a92.35,92.35,0,0,0-34.75-17.3l1.22-26.33A8.73,8.73,0,0,0,259.49.25L231.89,0a8.72,8.72,0,0,0-8.8,9l.73,26a92.38,92.38,0,0,0-37.47,17.87l-19.61-16.5a8.73,8.73,0,0,0-12.5,1.31l-17,21.77a8.72,8.72,0,0,0,1.78,12.43L159.7,86.8a92.22,92.22,0,0,0-8.44,37.86c0,.33,0,.66,0,1l-24.84,4.91a8.72,8.72,0,0,0-6.8,10.56L126,168a8.72,8.72,0,0,0,10.8,6.41l24.58-6.79a93.06,93.06,0,0,0,25.13,30.63L174.6,220.94a8.73,8.73,0,0,0,4,11.92l24.92,11.87a8.73,8.73,0,0,0,11.76-4.42l10.34-24a93.07,93.07,0,0,0,39.09-.52L275.25,240A8.73,8.73,0,0,0,287,244.33l24.86-12a8.73,8.73,0,0,0,3.91-11.94l-12.55-23.71a93,93,0,0,0,23.86-30.3l26,7a8.72,8.72,0,0,0,10.77-6.46l6.21-26.9A8.72,8.72,0,0,0,363.24,129.52Z"/><circle class="cls-2" cx="244.93" cy="123.02" r="46.34"/><path class="cls-1" d="M7.71,289.44c26.12-13.65,88.37-43.86,127.94-43.86,51.11,0,72.95,39.26,87.82,53.67s65.06,12.31,83.65,12.31,29.5,11.16,29.5,24.86-9.76,29.05-30.2,29.05H236.48c-13.43,0-42-6.44-56.86-10a10.92,10.92,0,0,0-12.78,6.76h0a10.92,10.92,0,0,0,7.93,14.54c18.41,3.93,51.95,10.77,62.88,10.77h76.2c34.39,0,40.43-33.46,40.43-33.46s80.85-52,94.33-60.87,33-25.56,47.86-6.51c15.55,19.92-10.22,44.15-20.91,51.12s-133.83,86-148.7,95.26-42.75,30.66-68.77,30.66c-31.13,0-105.93-42.56-137.11-58.58a24,24,0,0,0-23,.52l-26.26,15a14.37,14.37,0,0,1-20.12-6.31L1.39,308.32A14.36,14.36,0,0,1,7.71,289.44Z"/><path class="cls-1" d="M340.8,302.27s12.09,5.34,16.73,23.23c21.84-14.63,83.64-54.83,83.64-54.83s-5.11-10.45-22.76-10.45C401,260.22,340.8,302.27,340.8,302.27Z"/><path class="cls-1" d="M268.08,286.24s11.39,2.55,18.36,2.55,25.55-.46,28.81,2.09c18.82-10.91,63.43-38.8,63.43-38.8s-15.8-6.5-25.56-6.5C331.51,245.58,307.12,263,268.08,286.24Z"/></g></g></svg>